<svg width="23" height="28" viewBox="0 0 23 28" fill="none" xmlns="http://www.w3.org/2000/svg">
<path d="M22.6669 8.66662C22.6668 8.93029 22.5886 9.18802 22.4421 9.40723C22.2956 9.62645 22.0874 9.7973 21.8438 9.8982C21.6002 9.99909 21.3321 10.0255 21.0735 9.97407C20.8149 9.92265 20.5774 9.7957 20.3909 9.60929L16.0002 5.21862V22C16.0002 22.3536 15.8597 22.6927 15.6097 22.9428C15.3596 23.1928 15.0205 23.3333 14.6669 23.3333C14.3133 23.3333 13.9741 23.1928 13.7241 22.9428C13.474 22.6927 13.3336 22.3536 13.3336 22L13.3336 1.99996C13.3336 1.73629 13.4118 1.47856 13.5583 1.25935C13.7049 1.04013 13.9131 0.869282 14.1567 0.768389C14.4003 0.667496 14.6683 0.64109 14.9269 0.692514C15.1855 0.743938 15.4231 0.870878 15.6096 1.05729L22.2762 7.72396C22.5263 7.97395 22.6668 8.31303 22.6669 8.66662ZM8.00022 4.66663C7.6466 4.66663 7.30746 4.8071 7.05741 5.05715C6.80736 5.3072 6.66688 5.64634 6.66688 5.99996L6.66688 22.7813L2.27622 18.3906C2.02475 18.1477 1.68794 18.0134 1.33835 18.0164C0.988753 18.0194 0.654337 18.1597 0.407126 18.4069C0.159915 18.6541 0.0196899 18.9885 0.016652 19.3381C0.0136141 19.6877 0.148006 20.0245 0.390884 20.276L7.05755 26.9426C7.24402 27.129 7.48157 27.256 7.74018 27.3074C7.99878 27.3588 8.26682 27.3324 8.51042 27.2315C8.75402 27.1306 8.96224 26.9598 9.10875 26.7406C9.25527 26.5214 9.3335 26.2636 9.33355 26L9.33355 5.99996C9.33355 5.64634 9.19308 5.3072 8.94303 5.05715C8.69298 4.8071 8.35384 4.66663 8.00022 4.66663Z" fill="black"/>
</svg>
