<svg width="20" height="21" viewBox="0 0 20 21" fill="none" xmlns="http://www.w3.org/2000/svg">
<path fill-rule="evenodd" clip-rule="evenodd" d="M17.7492 8.43386C17.999 8.58112 18.075 8.89149 17.9188 9.12709C17.4506 9.83388 16.8941 10.4768 16.2615 11.0368L17.5426 12.2452C17.7508 12.4417 17.7508 12.7602 17.5426 12.9567C17.3343 13.1531 16.9966 13.1531 16.7884 12.9567L15.4412 11.6859C14.5919 12.2842 13.6362 12.7463 12.596 13.037L13.0752 14.7239C13.1514 14.9923 12.9825 15.2681 12.698 15.3401C12.4135 15.412 12.1211 15.2527 12.0448 14.9843L11.5564 13.2649C11.0533 13.3459 10.5337 13.388 10 13.388C9.46628 13.388 8.94674 13.3459 8.44354 13.2649L7.95519 14.9843C7.87897 15.2527 7.58653 15.412 7.30201 15.3401C7.01749 15.2681 6.84864 14.9923 6.92487 14.724L7.40399 13.037C6.36385 12.7463 5.40803 12.2842 4.55883 11.6859L3.21163 12.9566C3.00335 13.1531 2.66566 13.1531 2.45738 12.9566C2.24911 12.7602 2.24911 12.4417 2.45738 12.2452L3.73847 11.0368C3.10594 10.4768 2.54945 9.83388 2.08114 9.12709C1.92503 8.89149 2.00096 8.58112 2.25074 8.43386C2.50051 8.28661 2.82955 8.35823 2.98566 8.59384C3.49711 9.36572 4.1216 10.0483 4.83982 10.6139C4.85136 10.6222 4.86261 10.631 4.87357 10.6403C6.27624 11.7333 8.03239 12.3819 10 12.3819C12.995 12.3819 15.5001 10.8791 17.0143 8.59384C17.1705 8.35823 17.4995 8.28661 17.7492 8.43386Z" fill="#A8ABB2"/>
</svg>
