<svg width="20" height="20" viewBox="0 0 20 20" fill="none" xmlns="http://www.w3.org/2000/svg">
<g clip-path="url(#clip0_4206_3667)">
<mask id="mask0_4206_3667" style="mask-type:alpha" maskUnits="userSpaceOnUse" x="0" y="0" width="20" height="20">
<circle cx="10" cy="10" r="10" fill="#D9D9D9"/>
</mask>
<g mask="url(#mask0_4206_3667)">
<path d="M-5 0H25V20H-5V0Z" fill="white"/>
<path d="M-5 0H25V6.66667H-5V0Z" fill="#FF6820"/>
<path d="M-5 13.3333H25V20H-5V13.3333Z" fill="#046A38"/>
<path d="M10.0001 13.0833C11.703 13.0833 13.0834 11.7029 13.0834 10C13.0834 8.29713 11.703 6.91667 10.0001 6.91667C8.2972 6.91667 6.91675 8.29713 6.91675 10C6.91675 11.7029 8.2972 13.0833 10.0001 13.0833Z" fill="#07038D"/>
<path d="M9.99992 12.6667C11.4727 12.6667 12.6666 11.4728 12.6666 9.99999C12.6666 8.52724 11.4727 7.33333 9.99992 7.33333C8.52716 7.33333 7.33325 8.52724 7.33325 9.99999C7.33325 11.4728 8.52716 12.6667 9.99992 12.6667Z" fill="white"/>
<path d="M9.99989 10.5333C10.2944 10.5333 10.5332 10.2945 10.5332 9.99999C10.5332 9.70544 10.2944 9.46666 9.99989 9.46666C9.70533 9.46666 9.46655 9.70544 9.46655 9.99999C9.46655 10.2945 9.70533 10.5333 9.99989 10.5333Z" fill="#07038D"/>
<path d="M9.9999 7.33334L10.0999 8.93804L9.9999 9.73256L9.8999 8.93804L9.9999 7.33334Z" fill="#07038D"/>
<path d="M10.3328 7.47183C10.3967 7.48024 10.4553 7.43527 10.4637 7.37139C10.4721 7.30751 10.4271 7.2489 10.3632 7.24049C10.2993 7.23208 10.2407 7.27705 10.2323 7.34093C10.2239 7.40482 10.2689 7.46342 10.3328 7.47183Z" fill="#07038D"/>
<path d="M9.99985 12.6667L9.89985 11.062L9.99985 10.2675L10.0999 11.062L9.99985 12.6667Z" fill="#07038D"/>
<path d="M9.66698 12.5282C9.6031 12.5198 9.5445 12.5648 9.53609 12.6286C9.52768 12.6925 9.57265 12.7511 9.63653 12.7595C9.70041 12.7679 9.75902 12.723 9.76743 12.6591C9.77584 12.5952 9.73087 12.5366 9.66698 12.5282Z" fill="#07038D"/>
<path d="M10.6899 7.42421L10.3711 9.00011L10.0689 9.74168L10.1779 8.94835L10.6899 7.42421Z" fill="#07038D"/>
<path d="M10.9755 7.64413C11.0351 7.66879 11.1033 7.64052 11.128 7.58099C11.1526 7.52146 11.1243 7.45321 11.0648 7.42856C11.0053 7.4039 10.937 7.43217 10.9124 7.4917C10.8877 7.55123 10.916 7.61947 10.9755 7.64413Z" fill="#07038D"/>
<path d="M9.30966 12.5758L9.62839 10.9999L9.93062 10.2584L9.82158 11.0517L9.30966 12.5758Z" fill="#07038D"/>
<path d="M9.02399 12.3559C8.96446 12.3313 8.89621 12.3595 8.87155 12.4191C8.8469 12.4786 8.87517 12.5468 8.93469 12.5715C8.99422 12.5961 9.06247 12.5679 9.08713 12.5083C9.11178 12.4488 9.08352 12.3806 9.02399 12.3559Z" fill="#07038D"/>
<path d="M11.3332 7.69061L10.6174 9.13032L10.1336 9.76839L10.4442 9.03032L11.3332 7.69061Z" fill="#07038D"/>
<path d="M11.5521 7.97696C11.6032 8.01619 11.6764 8.00655 11.7157 7.95543C11.7549 7.90431 11.7452 7.83107 11.6941 7.79185C11.643 7.75262 11.5698 7.76226 11.5305 7.81338C11.4913 7.8645 11.501 7.93774 11.5521 7.97696Z" fill="#07038D"/>
<path d="M8.66633 12.3094L9.38207 10.8697L9.86594 10.2316L9.55528 10.9697L8.66633 12.3094Z" fill="#07038D"/>
<path d="M8.44744 12.0231C8.39632 11.9838 8.32308 11.9935 8.28386 12.0446C8.24463 12.0957 8.25427 12.169 8.30539 12.2082C8.35651 12.2474 8.42975 12.2378 8.46897 12.1866C8.5082 12.1355 8.49855 12.0623 8.44744 12.0231Z" fill="#07038D"/>
<path d="M11.8857 8.1144L10.8217 9.3198L10.1891 9.8109L10.6802 9.17838L11.8857 8.1144Z" fill="#07038D"/>
<path d="M12.0231 8.44766C12.0623 8.49878 12.1356 8.50842 12.1867 8.4692C12.2378 8.42997 12.2475 8.35673 12.2082 8.30562C12.169 8.2545 12.0958 8.24486 12.0446 8.28408C11.9935 8.32331 11.9839 8.39654 12.0231 8.44766Z" fill="#07038D"/>
<path d="M8.11435 11.8856L9.17833 10.6802L9.81085 10.1891L9.31975 10.8216L8.11435 11.8856Z" fill="#07038D"/>
<path d="M7.97689 11.5523C7.93766 11.5012 7.86442 11.4916 7.81331 11.5308C7.76219 11.57 7.75255 11.6433 7.79177 11.6944C7.831 11.7455 7.90423 11.7551 7.95535 11.7159C8.00647 11.6767 8.01611 11.6035 7.97689 11.5523Z" fill="#07038D"/>
<path d="M12.3095 8.66668L10.9698 9.55563L10.2317 9.86629L10.8698 9.38243L12.3095 8.66668Z" fill="#07038D"/>
<path d="M12.3559 9.02417C12.3806 9.08369 12.4488 9.11196 12.5084 9.08731C12.5679 9.06265 12.5962 8.9944 12.5715 8.93487C12.5468 8.87534 12.4786 8.84708 12.4191 8.87173C12.3595 8.89639 12.3313 8.96464 12.3559 9.02417Z" fill="#07038D"/>
<path d="M7.69048 11.3333L9.03019 10.4444L9.76826 10.1337L9.13019 10.6176L7.69048 11.3333Z" fill="#07038D"/>
<path d="M7.64407 10.9758C7.61941 10.9163 7.55117 10.8881 7.49164 10.9127C7.43211 10.9374 7.40384 11.0056 7.4285 11.0651C7.45316 11.1247 7.5214 11.1529 7.58093 11.1283C7.64046 11.1036 7.66873 11.0354 7.64407 10.9758Z" fill="#07038D"/>
<path d="M12.5759 9.30982L11.0518 9.82174L10.2585 9.93078L11 9.62855L12.5759 9.30982Z" fill="#07038D"/>
<path d="M12.5285 9.66717C12.5369 9.73105 12.5955 9.77602 12.6594 9.76761C12.7233 9.7592 12.7683 9.70059 12.7599 9.63671C12.7514 9.57283 12.6928 9.52786 12.629 9.53627C12.5651 9.54468 12.5201 9.60328 12.5285 9.66717Z" fill="#07038D"/>
<path d="M7.42456 10.6902L8.94869 10.1783L9.74202 10.0692L9.00046 10.3715L7.42456 10.6902Z" fill="#07038D"/>
<path d="M7.47197 10.3328C7.46356 10.269 7.40495 10.224 7.34107 10.2324C7.27719 10.2408 7.23222 10.2994 7.24063 10.3633C7.24904 10.4272 7.30765 10.4722 7.37153 10.4637C7.43541 10.4553 7.48038 10.3967 7.47197 10.3328Z" fill="#07038D"/>
<path d="M12.6667 10L11.0621 10.1L10.2675 10L11.0621 9.90001L12.6667 10Z" fill="#07038D"/>
<path d="M12.5283 10.3328C12.5199 10.3967 12.5649 10.4553 12.6288 10.4637C12.6927 10.4722 12.7513 10.4272 12.7597 10.3633C12.7681 10.2994 12.7231 10.2408 12.6592 10.2324C12.5954 10.224 12.5367 10.269 12.5283 10.3328Z" fill="#07038D"/>
<path d="M7.3335 10L8.93819 9.90001L9.73271 10L8.93819 10.1L7.3335 10Z" fill="#07038D"/>
<path d="M7.47191 9.66717C7.48032 9.60329 7.43535 9.54468 7.37147 9.53627C7.30758 9.52786 7.24898 9.57283 7.24057 9.63671C7.23216 9.70059 7.27713 9.7592 7.34101 9.76761C7.40489 9.77602 7.4635 9.73105 7.47191 9.66717Z" fill="#07038D"/>
<path d="M12.5757 10.6902L10.9998 10.3715L10.2582 10.0692L11.0515 10.1783L12.5757 10.6902Z" fill="#07038D"/>
<path d="M12.3557 10.9758C12.3311 11.0354 12.3594 11.1036 12.4189 11.1283C12.4784 11.1529 12.5467 11.1247 12.5713 11.0651C12.596 11.0056 12.5677 10.9374 12.5082 10.9127C12.4487 10.888 12.3804 10.9163 12.3557 10.9758Z" fill="#07038D"/>
<path d="M7.42432 9.30981L9.00022 9.62854L9.74178 9.93077L8.94846 9.82173L7.42432 9.30981Z" fill="#07038D"/>
<path d="M7.64425 9.02416C7.66891 8.96463 7.64064 8.89638 7.58111 8.87172C7.52158 8.84707 7.45334 8.87533 7.42868 8.93486C7.40402 8.99439 7.43229 9.06264 7.49182 9.08729C7.55135 9.11195 7.61959 9.08368 7.64425 9.02416Z" fill="#07038D"/>
<path d="M12.3094 11.3333L10.8697 10.6176L10.2316 10.1337L10.9697 10.4444L12.3094 11.3333Z" fill="#07038D"/>
<path d="M12.0229 11.5524C11.9837 11.6035 11.9933 11.6767 12.0444 11.7159C12.0956 11.7552 12.1688 11.7455 12.208 11.6944C12.2473 11.6433 12.2376 11.57 12.1865 11.5308C12.1354 11.4916 12.0621 11.5012 12.0229 11.5524Z" fill="#07038D"/>
<path d="M7.69038 8.66668L9.13009 9.38242L9.76816 9.86629L9.03009 9.55563L7.69038 8.66668Z" fill="#07038D"/>
<path d="M7.97684 8.44766C8.01607 8.39655 8.00642 8.32331 7.95531 8.28408C7.90419 8.24486 7.83095 8.2545 7.79173 8.30562C7.7525 8.35674 7.76214 8.42998 7.81326 8.4692C7.86438 8.50842 7.93762 8.49878 7.97684 8.44766Z" fill="#07038D"/>
<path d="M11.8853 11.8856L10.6799 10.8216L10.1888 10.1891L10.8214 10.6802L11.8853 11.8856Z" fill="#07038D"/>
<path d="M11.552 12.0231C11.5009 12.0623 11.4913 12.1355 11.5305 12.1866C11.5697 12.2378 11.6429 12.2474 11.6941 12.2082C11.7452 12.1689 11.7548 12.0957 11.7156 12.0446C11.6764 11.9935 11.6031 11.9838 11.552 12.0231Z" fill="#07038D"/>
<path d="M8.11417 8.11439L9.31957 9.17837L9.81067 9.8109L9.17815 9.3198L8.11417 8.11439Z" fill="#07038D"/>
<path d="M8.44749 7.97695C8.49861 7.93772 8.50825 7.86449 8.46903 7.81337C8.4298 7.76225 8.35657 7.75261 8.30545 7.79183C8.25433 7.83106 8.24469 7.90429 8.28391 7.95541C8.32314 8.00653 8.39637 8.01617 8.44749 7.97695Z" fill="#07038D"/>
<path d="M11.3333 12.3094L10.4444 10.9697L10.1337 10.2316L10.6176 10.8697L11.3333 12.3094Z" fill="#07038D"/>
<path d="M10.9758 12.3559C10.9162 12.3806 10.888 12.4488 10.9126 12.5083C10.9373 12.5679 11.0055 12.5961 11.0651 12.5715C11.1246 12.5468 11.1529 12.4786 11.1282 12.419C11.1035 12.3595 11.0353 12.3312 10.9758 12.3559Z" fill="#07038D"/>
<path d="M8.66644 7.6906L9.55539 9.03031L9.86604 9.76838L9.38218 9.13031L8.66644 7.6906Z" fill="#07038D"/>
<path d="M9.02398 7.64412C9.08351 7.61946 9.11178 7.55121 9.08712 7.49168C9.06246 7.43216 8.99422 7.40389 8.93469 7.42854C8.87516 7.4532 8.84689 7.52145 8.87155 7.58098C8.89621 7.6405 8.96445 7.66877 9.02398 7.64412Z" fill="#07038D"/>
<path d="M10.69 12.5758L10.1781 11.0517L10.0691 10.2583L10.3713 10.9999L10.69 12.5758Z" fill="#07038D"/>
<path d="M10.3329 12.5282C10.269 12.5366 10.224 12.5952 10.2324 12.6591C10.2408 12.723 10.2995 12.7679 10.3633 12.7595C10.4272 12.7511 10.4722 12.6925 10.4638 12.6286C10.4554 12.5647 10.3968 12.5198 10.3329 12.5282Z" fill="#07038D"/>
<path d="M9.30973 7.42421L9.82165 8.94834L9.93069 9.74167L9.62846 9.00011L9.30973 7.42421Z" fill="#07038D"/>
<path d="M9.66688 7.47183C9.73076 7.46342 9.77573 7.40482 9.76732 7.34093C9.75891 7.27705 9.7003 7.23208 9.63642 7.24049C9.57254 7.2489 9.52757 7.30751 9.53598 7.37139C9.54439 7.43527 9.60299 7.48024 9.66688 7.47183Z" fill="#07038D"/>
</g>
</g>
<defs>
<clipPath id="clip0_4206_3667">
<rect width="20" height="20" fill="white"/>
</clipPath>
</defs>
</svg>



