<svg width="29" height="29" viewBox="0 0 29 29" fill="none" xmlns="http://www.w3.org/2000/svg">
<path d="M14.0245 1.46352C14.1741 1.00287 14.8259 1.00287 14.9755 1.46353L17.98 10.7102C18.0469 10.9162 18.2389 11.0557 18.4555 11.0557H28.1781C28.6624 11.0557 28.8638 11.6755 28.472 11.9602L20.6062 17.675C20.431 17.8023 20.3577 18.028 20.4246 18.234L23.429 27.4807C23.5787 27.9414 23.0515 28.3245 22.6596 28.0398L14.7939 22.325C14.6186 22.1977 14.3814 22.1977 14.2061 22.325L6.34038 28.0398C5.94853 28.3245 5.42129 27.9414 5.57096 27.4807L8.5754 18.234C8.64234 18.028 8.56901 17.8023 8.39377 17.675L0.528044 11.9602C0.136187 11.6755 0.337576 11.0557 0.821937 11.0557H10.5445C10.7611 11.0557 10.9531 10.9162 11.02 10.7102L14.0245 1.46352Z" fill="#E0E0E0" stroke="#E0E0E0" stroke-width="0.5"/>
</svg>
